# xmcd CD database file
#
# Track frame offsets:
#	150
#	11712
#	25340
#	40225
#	57229
#	75947
#	94289
#	109595
#	128796
#	144285
#	167094
#	188201
#	205145
#
# Disc length: 2919 seconds
#
# Revision: 1
# Processed by: cddbd v1.5.2PL0 Copyright (c) Steve Scherf et al.
# Submitted via: CDex 1.60beta1
#
DISCID=a50b650d
DTITLE=Sebranka - Vzpominka na starou stezku
DYEAR=2006
DGENRE=Folk
TTITLE0=Vzpominka na starou stezku
TTITLE1=D.C. al Fine
TTITLE2=Az se vrati labute
TTITLE3=Konec vandru
TTITLE4=Pisnickove pohlazeni
TTITLE5=Bye, bye podzimu
TTITLE6=Predimenzovana swingova etuda
TTITLE7=Srpen 2002
TTITLE8=Do ticha hraj mi dal
TTITLE9=Pivni perut
TTITLE10=Pred ranem
TTITLE11=Pro par supu
TTITLE12=Reminiscence
EXTD=YEAR: 2006
EXTT0=
EXTT1=
EXTT2=
EXTT3=
EXTT4=
EXTT5=
EXTT6=
EXTT7=
EXTT8=
EXTT9=
EXTT10=
EXTT11=
EXTT12=
PLAYORDER=
